<svg width="139.066162" height="142.115234" viewBox="0 0 139.066 142.115" fill="none" xmlns="http://www.w3.org/2000/svg" xmlns:xlink="http://www.w3.org/1999/xlink">
	<desc>
			Created with Pixso.
	</desc>
	<defs/>
	<path id="Vector" d="M111.687 13.9424C99.2729 5.12402 84.3228 0.591797 69.1016 1.03223C53.8804 1.4729 39.2175 6.86206 27.334 16.3838C15.4504 25.9055 6.99414 39.0405 3.24561 53.7996C-0.50293 68.5586 0.660889 84.1372 6.56055 98.1753C12.4602 112.214 22.7744 123.947 35.9407 131.597C49.1069 139.248 64.4077 142.398 79.5254 140.573C94.6431 138.747 108.754 132.044 119.72 121.479L119.75 121.479L120.32 120.909C123.071 118.146 124.613 114.405 124.609 110.506C124.604 106.607 123.054 102.87 120.297 100.113C117.54 97.3564 113.802 95.8057 109.904 95.8013C106.005 95.7971 102.264 97.3394 99.5012 100.09L99.5012 100.08C93.866 105.595 86.7449 109.348 79.01 110.879C71.2749 112.41 63.2615 111.653 55.95 108.7C48.6384 105.748 42.3464 100.728 37.8438 94.2546C33.3411 87.7817 30.823 80.1362 30.5979 72.2544C30.3728 64.3726 32.4504 56.5959 36.5767 49.8765C40.7026 43.157 46.698 37.7861 53.8291 34.4211C60.9602 31.0562 68.9175 29.8433 76.7273 30.9304C84.5371 32.0176 91.8606 35.3582 97.8013 40.5427L99.7712 42.5227C100.692 43.4558 101.206 44.7151 101.202 46.0256C101.197 47.3364 100.675 48.5923 99.7478 49.519C98.821 50.4458 97.5652 50.9685 96.2546 50.9729C94.9438 50.9773 93.6846 50.4631 92.7515 49.5425L90.0217 46.8025L89.9219 46.9026C89.8784 46.7805 89.8064 46.6709 89.7117 46.5825C85.0767 43.0725 79.541 40.949 73.7476 40.4583C67.9541 39.9675 62.1404 41.1301 56.981 43.8105C51.8215 46.4912 47.5283 50.5798 44.5991 55.6023C41.6699 60.6248 40.2253 66.375 40.4326 72.1855C40.6401 77.9961 42.491 83.6287 45.7708 88.4294C49.0505 93.2302 53.6245 97.0027 58.9617 99.3086C64.2991 101.615 70.1812 102.359 75.9248 101.457C81.6685 100.554 87.0386 98.0417 91.4116 94.2102C92.2351 93.2903 92.6868 92.0972 92.6794 90.8625C92.6721 89.6282 92.2058 88.4404 91.3716 87.5305C89.4016 85.4006 86.032 85.9604 84.3621 87.3306C81.3174 89.8066 77.6375 91.3765 73.7429 91.8604C69.8484 92.3445 65.8962 91.7231 62.3381 90.0676C58.78 88.4121 55.7593 85.7888 53.6213 82.498C51.4832 79.207 50.314 75.3811 50.2471 71.4573C50.1804 67.5334 51.2188 63.6697 53.2437 60.3081C55.2683 56.9463 58.198 54.2219 61.6978 52.446C65.1975 50.6704 69.1262 49.915 73.0349 50.2661C76.9438 50.6174 80.6748 52.061 83.802 54.4321L83.832 54.4121L85.6018 56.1821C88.3647 58.9326 92.106 60.4749 96.0046 60.4705C99.9031 60.4663 103.641 58.9155 106.398 56.1587C109.154 53.4021 110.705 49.6643 110.709 45.7659C110.714 41.8672 109.171 38.126 106.421 35.363L106.201 35.1431C106.167 34.9858 106.091 34.8406 105.981 34.7231C98.8179 27.8687 89.7913 23.2808 80.0322 21.5339C70.2732 19.7874 60.2156 20.9597 51.1199 24.9043C42.0239 28.8489 34.2947 35.3899 28.9004 43.7083C23.5059 52.0264 20.6865 61.7517 20.7954 71.6653C20.9041 81.5789 23.9363 91.2397 29.5117 99.4377C35.0872 107.635 42.9583 114.006 52.1384 117.75C61.3184 121.494 71.3992 122.445 81.1177 120.485C90.8362 118.524 99.76 113.74 106.771 106.729C106.786 106.695 106.802 106.662 106.821 106.63C107.724 105.785 108.909 105.31 110.145 105.296C111.381 105.282 112.577 105.731 113.499 106.555C114.42 107.378 115 108.517 115.125 109.747C115.249 110.976 114.908 112.208 114.171 113.199C105.039 122.526 93.1221 128.63 80.2175 130.591C67.3127 132.551 54.1206 130.261 42.6316 124.066C31.1426 117.871 21.98 108.107 16.5264 96.2485C11.073 84.3896 9.62427 71.0789 12.3992 58.3245C15.1741 45.5701 22.022 34.0642 31.9094 25.543C41.7969 17.022 54.1877 11.9478 67.2119 11.0859C80.2363 10.2244 93.1873 13.6223 104.111 20.7666C115.035 27.9111 123.339 38.4146 127.77 50.6924C128.5 52.7222 130.21 55.6821 133.699 55.4622C134.375 55.4614 135.04 55.3042 135.644 55.0029C136.249 54.7019 136.775 54.2649 137.181 53.7263C137.588 53.1875 137.865 52.562 137.99 51.8987C138.114 51.2351 138.083 50.552 137.899 49.9023C133.303 35.385 124.101 22.7607 111.687 13.9424Z" stroke="#FFFFFF" stroke-opacity="1.000000" stroke-width="1.999899" stroke-linejoin="round"/>
</svg>
