<svg width="149.938599" height="139.989502" viewBox="0 0 149.939 139.99" fill="none" xmlns="http://www.w3.org/2000/svg" xmlns:xlink="http://www.w3.org/1999/xlink">
	<desc>
			Created with Pixso.
	</desc>
	<defs/>
	<path id="Vector" d="M0.010498 99.7954C0.0212402 99.8503 0.0379639 99.9041 0.0605469 99.9553C0.0705566 99.9854 0.0805664 100.025 0.0905762 100.055L11.4989 119.812L11.5288 119.843C11.5488 119.872 11.5688 119.902 11.5989 119.942C11.6375 119.984 11.6812 120.021 11.7289 120.052C11.7588 120.072 11.7788 120.102 11.8088 120.122C11.8206 120.13 11.8347 120.134 11.8489 120.132C11.962 120.196 12.0891 120.23 12.2188 120.232L57.3522 120.232L68.5205 139.57L68.5505 139.6C68.5704 139.629 68.5905 139.659 68.6205 139.699C68.6591 139.741 68.7028 139.778 68.7505 139.81C68.7805 139.83 68.8004 139.859 68.8304 139.879C68.8422 139.887 68.8563 139.891 68.8705 139.889C68.9836 139.953 69.1107 139.987 69.2404 139.99L137.68 139.99C137.813 139.987 137.943 139.953 138.06 139.889L138.15 139.83C138.235 139.773 138.31 139.702 138.37 139.62C138.38 139.6 138.41 139.59 138.42 139.57L149.829 119.812C149.839 119.792 149.839 119.782 149.849 119.762C149.866 119.731 149.88 119.697 149.889 119.662C149.899 119.623 149.909 119.593 149.919 119.552C149.927 119.516 149.93 119.479 149.929 119.442C149.929 119.422 149.939 119.413 149.939 119.393C149.939 119.373 149.929 119.363 149.929 119.343C149.929 119.302 149.919 119.272 149.919 119.232C149.919 119.193 149.899 119.163 149.889 119.123C149.877 119.089 149.864 119.055 149.849 119.022C149.839 119.002 149.839 118.992 149.829 118.973L127.262 79.8882L138.42 60.551C138.43 60.531 138.43 60.521 138.44 60.5012C138.458 60.4697 138.471 60.436 138.48 60.4011C138.49 60.3611 138.5 60.3311 138.51 60.2913C138.519 60.2551 138.522 60.218 138.52 60.1812C138.52 60.1611 138.53 60.1511 138.53 60.1311C138.53 60.1111 138.52 60.1011 138.52 60.0813C138.52 60.0413 138.51 60.0112 138.51 59.9712C138.51 59.9312 138.49 59.9011 138.48 59.8613C138.469 59.8271 138.455 59.7939 138.44 59.7612C138.43 59.7412 138.43 59.7312 138.42 59.7112L104.215 0.429932C104.195 0.399902 104.165 0.379883 104.145 0.349854C104.111 0.304688 104.074 0.26123 104.035 0.219971C103.994 0.186523 103.951 0.156494 103.905 0.129883C103.862 0.10083 103.815 0.0771484 103.765 0.0600586C103.707 0.0407715 103.646 0.0275879 103.585 0.0200195C103.555 0.0200195 103.525 0 103.485 0L80.6687 0C80.6487 0 80.6387 0.0100098 80.6188 0.0100098C80.5787 0.0100098 80.5487 0.0200195 80.5088 0.0200195L80.3888 0.0500488C80.3588 0.0600586 80.3187 0.0800781 80.2888 0.0900879C80.2588 0.100098 80.2588 0.100098 80.2388 0.109863C80.2274 0.122314 80.2139 0.132568 80.1989 0.139893C80.1665 0.160156 80.1364 0.183594 80.1088 0.209961C80.0797 0.234131 80.0529 0.260742 80.0288 0.290039C80.0088 0.320068 79.9788 0.349854 79.9589 0.379883C79.9464 0.391357 79.9363 0.404785 79.9288 0.419922L57.3622 39.5142L35.0454 39.5142C35.0254 39.5142 35.0154 39.5242 34.9955 39.5242C34.9554 39.5242 34.9254 39.5342 34.8854 39.5342C34.8455 39.5342 34.8054 39.5542 34.7755 39.5642C34.7415 39.5757 34.7081 39.5891 34.6754 39.6042C34.6555 39.6143 34.6455 39.6143 34.6255 39.6243C34.6055 39.6343 34.6055 39.6443 34.5854 39.6543C34.5531 39.6743 34.5229 39.6978 34.4955 39.7241C34.4664 39.7483 34.4396 39.7751 34.4155 39.8042C34.3955 39.8342 34.3655 39.8643 34.3455 39.894C34.3331 39.9055 34.323 39.9192 34.3156 39.9341L0.100586 99.2153C0.0860596 99.2473 0.0759277 99.2808 0.0705566 99.3154C0.0493164 99.3672 0.0325928 99.4207 0.0205078 99.4753C0.00463867 99.5271 -0.0020752 99.5813 0.000610352 99.6355C-0.00109863 99.689 0.00219727 99.7424 0.010498 99.7954ZM102.995 1.69971L136.241 59.2812L115.384 59.2812L82.1285 1.69971L102.995 1.69971ZM114.404 98.7954L93.5369 98.7954L115.374 60.9609L136.241 60.9609L114.404 98.7954ZM80.6687 2.53955L113.914 60.1211L92.077 97.9556L81.6486 79.8782L92.8169 60.541C92.8269 60.521 92.8269 60.5112 92.8369 60.4912C92.8545 60.4597 92.8679 60.426 92.877 60.3911C92.887 60.3511 92.897 60.321 92.9069 60.2812C92.9152 60.2451 92.9186 60.208 92.9169 60.1711C92.9169 60.1511 92.9269 60.1411 92.9269 60.1211C92.9269 60.1011 92.9169 60.0911 92.9169 60.0713C92.9169 60.0312 92.9069 60.0012 92.9069 59.9612C92.9069 59.9211 92.887 59.8911 92.877 59.8513C92.8654 59.8171 92.8519 59.7839 92.8369 59.7512C92.8269 59.7312 92.8269 59.7212 92.8169 59.7012L81.3986 39.9441C81.3787 39.9141 81.3486 39.894 81.3286 39.8643C81.2944 39.8188 81.2577 39.7754 81.2186 39.7341C81.1777 39.7009 81.1343 39.6707 81.0886 39.6443C81.0441 39.6169 80.9972 39.5935 80.9487 39.5742C80.8942 39.5547 80.8367 39.5444 80.7787 39.5442C80.7487 39.5442 80.7087 39.5242 80.6787 39.5242L59.3219 39.5242L80.6687 2.53955ZM57.8621 41.2139L80.1888 41.2139L90.6273 59.2812L46.9437 59.2812L36.5052 41.2139L57.8621 41.2139ZM35.0454 42.0537L45.4739 60.1211L12.2288 117.703L1.80029 99.6355L35.0454 42.0537ZM13.6985 118.543L46.9437 60.9609L90.6273 60.9609L80.1888 79.0383L57.8621 79.0383C57.842 79.0383 57.832 79.0483 57.8121 79.0483C57.7721 79.0483 57.7421 79.0583 57.702 79.0583L57.5822 79.0884C57.5521 79.0984 57.5121 79.1184 57.4822 79.1284C57.4521 79.1384 57.4521 79.1384 57.4321 79.1484C57.4208 79.1606 57.4072 79.1709 57.3921 79.1785C57.3597 79.1985 57.3296 79.2219 57.3021 79.2483C57.2731 79.2725 57.2462 79.2993 57.2222 79.3284C57.2021 79.3584 57.1721 79.3884 57.1522 79.4185C57.1422 79.4282 57.1222 79.4382 57.1222 79.4583L45.7139 99.2153C45.6993 99.2473 45.6892 99.2808 45.6838 99.3154C45.6627 99.3672 45.646 99.4207 45.6339 99.4753C45.6252 99.5283 45.6218 99.5818 45.6239 99.6355C45.6222 99.689 45.6256 99.7424 45.6339 99.7954C45.6445 99.8503 45.6613 99.9041 45.6838 99.9553C45.6938 99.9854 45.7039 100.025 45.7139 100.055L56.3923 118.543L13.6985 118.543ZM137.22 138.3L70.7302 138.3L81.1587 120.232L147.649 120.232L137.22 138.3ZM69.2704 137.46L47.4336 99.6355L57.8721 81.5581L79.7089 119.383L69.2704 137.46ZM147.649 118.543L81.1587 118.543L59.3219 80.7183L80.1888 80.7183L91.3572 100.055L91.3871 100.085C91.4071 100.121 91.4305 100.154 91.4572 100.185C91.4957 100.227 91.5394 100.264 91.5872 100.295C91.6171 100.315 91.6371 100.345 91.6671 100.365C91.6788 100.373 91.693 100.377 91.7072 100.375C91.8203 100.438 91.9474 100.473 92.077 100.475L114.894 100.475C115.026 100.473 115.157 100.439 115.274 100.375L115.364 100.315C115.449 100.259 115.523 100.188 115.584 100.105C115.594 100.085 115.624 100.075 115.634 100.055L126.312 81.5581L147.649 118.543Z" fill="#FFFFFF" fill-opacity="1.000000" fill-rule="nonzero"/>
</svg>
