<svg width="139.969116" height="121.435791" viewBox="0 0 139.969 121.436" fill="none" xmlns="http://www.w3.org/2000/svg" xmlns:xlink="http://www.w3.org/1999/xlink">
	<desc>
			Created with Pixso.
	</desc>
	<defs/>
	<path id="Vector" d="M0.0203857 108.188C0.0325928 108.24 0.0493164 108.29 0.0704346 108.338C0.0758057 108.37 0.0859375 108.4 0.100342 108.428L7.3783 121.046L7.4082 121.076C7.42834 121.108 7.45178 121.138 7.47827 121.166C7.51819 121.206 7.55823 121.236 7.59814 121.276C7.62817 121.296 7.63818 121.326 7.66821 121.336C7.67993 121.344 7.69409 121.347 7.70813 121.346C7.81665 121.401 7.93616 121.432 8.05798 121.436L131.891 121.436C132.013 121.432 132.133 121.401 132.241 121.346C132.271 121.326 132.291 121.306 132.321 121.286C132.402 121.235 132.471 121.167 132.521 121.086C132.531 121.066 132.551 121.056 132.571 121.036L139.859 108.418C139.869 108.408 139.869 108.388 139.879 108.378C139.898 108.348 139.912 108.314 139.919 108.279C139.929 108.249 139.939 108.208 139.949 108.178C139.957 108.146 139.961 108.112 139.959 108.078C139.959 108.059 139.969 108.049 139.969 108.029C139.969 108.009 139.959 107.999 139.959 107.979C139.959 107.958 139.949 107.908 139.949 107.878C139.949 107.849 139.929 107.809 139.919 107.779C139.908 107.744 139.895 107.711 139.879 107.678C139.869 107.668 139.869 107.649 139.859 107.639L77.9474 0.389893C77.9299 0.364502 77.9099 0.341064 77.8875 0.319824C77.8562 0.275391 77.8192 0.235107 77.7775 0.199951C77.6991 0.142334 77.6154 0.092041 77.5276 0.0500488C77.4755 0.0341797 77.4219 0.0241699 77.3677 0.0200195C77.3376 0.0200195 77.3076 0 77.2677 0L62.7019 0C62.6819 0 62.672 0.0100098 62.652 0.0100098C62.632 0.0100098 62.582 0.0200195 62.552 0.0200195L62.442 0.0500488C62.4077 0.060791 62.3743 0.0739746 62.342 0.0900879C62.3303 0.0979004 62.3162 0.101562 62.302 0.100098C62.2906 0.112305 62.2771 0.122559 62.2621 0.129883C62.2336 0.147461 62.2069 0.16748 62.1821 0.189941C62.153 0.214111 62.1262 0.240723 62.1021 0.27002C62.0822 0.300049 62.0621 0.319824 62.0421 0.349854C62.0298 0.361328 62.0197 0.374756 62.0121 0.389893L0.090332 107.649C0.0759277 107.677 0.0657959 107.707 0.0604248 107.739C0.0393066 107.787 0.022583 107.837 0.010376 107.888C0.0020752 107.938 -0.0012207 107.988 0.000366211 108.039C0.010376 108.088 0.010376 108.138 0.0203857 108.188ZM76.8177 1.56958L137.83 107.249L31.2812 107.249L37.6593 96.2109L117.346 96.2109C117.469 96.2097 117.59 96.1753 117.696 96.1108C117.706 96.1008 117.726 96.1108 117.736 96.1008C117.761 96.0835 117.785 96.0632 117.806 96.0408C117.848 96.0071 117.888 95.9702 117.926 95.9309C117.956 95.8933 117.983 95.8533 118.006 95.811C118.036 95.7729 118.056 95.7283 118.066 95.6809C118.086 95.6301 118.096 95.5757 118.096 95.521C118.096 95.491 118.116 95.4609 118.116 95.4209C118.116 95.4011 118.106 95.3911 118.106 95.3711C118.1 95.3201 118.09 95.27 118.076 95.2209C118.063 95.1697 118.047 95.1194 118.026 95.071C118.016 95.061 118.016 95.041 118.006 95.031L64.0515 1.56958L76.8177 1.56958ZM131.452 119.866L9.42761 119.866L62.7019 27.5845L69.0801 38.6223L29.2318 107.639C29.2239 107.65 29.2203 107.665 29.2218 107.678C29.2007 107.727 29.184 107.777 29.1718 107.829C29.1571 107.877 29.147 107.928 29.1418 107.979C29.1418 107.999 29.1318 108.009 29.1318 108.029C29.1318 108.049 29.1519 108.088 29.1519 108.128C29.157 108.183 29.167 108.236 29.1818 108.288C29.2018 108.338 29.2218 108.378 29.2418 108.418C29.2661 108.46 29.2928 108.5 29.3218 108.538C29.3618 108.578 29.4017 108.608 29.4418 108.648C29.4718 108.668 29.4817 108.698 29.5117 108.708C29.5217 108.718 29.5417 108.708 29.5518 108.718C29.6595 108.777 29.7791 108.811 29.9016 108.818L137.81 108.818L131.452 119.866ZM101.411 94.6411L38.5591 94.6411L69.9897 40.2019L101.411 94.6411ZM62.7019 2.35962L115.976 94.6411L103.23 94.6411L63.3917 25.625C63.3794 25.6135 63.3693 25.5999 63.3617 25.585C63.3318 25.5449 63.2917 25.5049 63.2617 25.4648C63.2264 25.4263 63.1862 25.3928 63.1418 25.365C63.1304 25.3525 63.1168 25.3425 63.1018 25.335C63.0735 25.3206 63.0432 25.3103 63.0118 25.3049C62.9635 25.2839 62.9133 25.2671 62.8619 25.2549C62.7623 25.2417 62.6615 25.2417 62.562 25.2549C62.5106 25.2671 62.4604 25.2839 62.412 25.3049C62.3807 25.3103 62.3503 25.3206 62.322 25.335C62.3107 25.3474 62.2971 25.3574 62.2821 25.365C62.2421 25.395 62.202 25.4348 62.1621 25.4648C62.1207 25.4976 62.0868 25.5383 62.0621 25.585C62.0498 25.5962 62.0397 25.6099 62.0321 25.625L8.078 119.086L1.69995 108.049L62.7019 2.35962Z" fill="#FFFFFF" fill-opacity="1.000000" fill-rule="nonzero"/>
</svg>
