<svg width="139.890625" height="121.428955" viewBox="0 0 139.891 121.429" fill="none" xmlns="http://www.w3.org/2000/svg" xmlns:xlink="http://www.w3.org/1999/xlink">
	<desc>
			Created with Pixso.
	</desc>
	<defs/>
	<path id="Vector" d="M116.539 101.364C116.549 101.354 116.549 101.334 116.559 101.324C116.578 101.293 116.592 101.26 116.599 101.224C116.609 101.194 116.619 101.154 116.629 101.124C116.637 101.092 116.641 101.058 116.639 101.024C116.639 101.004 116.649 100.994 116.649 100.974C116.649 100.954 116.639 100.944 116.639 100.924C116.639 100.904 116.629 100.854 116.629 100.824C116.629 100.794 116.609 100.754 116.599 100.724C116.588 100.69 116.575 100.656 116.559 100.624C116.549 100.614 116.549 100.594 116.539 100.584L105.323 81.1592L127.745 81.1592C127.867 81.1555 127.986 81.1248 128.095 81.0693C128.125 81.0493 128.145 81.0293 128.175 81.0093C128.256 80.9585 128.324 80.8901 128.375 80.8093C128.385 80.7893 128.405 80.7793 128.425 80.7593L139.781 61.0942C139.791 61.0842 139.791 61.0645 139.801 61.0544C139.82 61.0237 139.833 60.9897 139.841 60.9543C139.851 60.9243 139.861 60.8843 139.871 60.8545C139.879 60.8218 139.882 60.7881 139.881 60.7544C139.881 60.7344 139.891 60.7244 139.891 60.7043C139.891 60.6843 139.881 60.6746 139.881 60.6545C139.881 60.6345 139.871 60.5845 139.871 60.5544C139.871 60.5244 139.851 60.4844 139.841 60.4546C139.83 60.4202 139.817 60.3867 139.801 60.3545C139.791 60.3445 139.791 60.3245 139.781 60.3145L128.425 40.6497C128.407 40.6243 128.387 40.6008 128.365 40.5796C128.334 40.5349 128.297 40.4944 128.255 40.4597C128.213 40.4272 128.17 40.3972 128.125 40.3696C128.084 40.3438 128.041 40.3235 127.995 40.3096C127.944 40.29 127.89 40.28 127.835 40.2798C127.805 40.2798 127.775 40.2598 127.745 40.2598L105.323 40.2598L116.539 20.8347C116.549 20.8247 116.549 20.8047 116.559 20.7947C116.578 20.7639 116.592 20.7302 116.599 20.6946C116.609 20.6648 116.619 20.6248 116.629 20.5947C116.637 20.562 116.641 20.5283 116.639 20.4946C116.639 20.4749 116.649 20.4648 116.649 20.4448C116.649 20.4248 116.639 20.4148 116.639 20.3948C116.639 20.3748 116.629 20.3247 116.629 20.2947C116.629 20.2649 116.609 20.2249 116.599 20.1948C116.588 20.1604 116.575 20.1272 116.559 20.0947C116.549 20.085 116.549 20.0649 116.539 20.0549L105.193 0.389893C105.176 0.364502 105.155 0.341064 105.133 0.319824C105.103 0.277588 105.069 0.237549 105.033 0.199951C104.991 0.167725 104.948 0.137695 104.903 0.109863C104.863 0.0839844 104.819 0.0639648 104.773 0.0500488C104.722 0.0305176 104.668 0.0202637 104.613 0.0200195C104.583 0.0200195 104.553 0 104.523 0L81.8213 0C81.8013 0 81.7913 0.0100098 81.7712 0.0100098C81.7512 0.0100098 81.7012 0.0200195 81.6711 0.0200195L81.5613 0.0500488C81.5295 0.059082 81.4993 0.0725098 81.4712 0.0900879C81.4595 0.0979004 81.4453 0.101562 81.4314 0.0998535L81.4014 0.129883C81.3728 0.147461 81.3462 0.16748 81.3213 0.189941C81.2922 0.214111 81.2654 0.240723 81.2415 0.27002C81.2214 0.299805 81.2014 0.319824 81.1814 0.349854C81.1692 0.361328 81.1589 0.374756 81.1514 0.389893L69.9353 19.8149L58.7195 0.389893C58.7019 0.364502 58.6819 0.341064 58.6594 0.319824C58.6255 0.277588 58.5886 0.237305 58.5493 0.199951C58.5117 0.169922 58.4717 0.143066 58.4294 0.119873C58.3892 0.0939941 58.3455 0.0739746 58.2996 0.0600586C58.2488 0.0395508 58.1943 0.0292969 58.1394 0.0300293C58.1096 0.0300293 58.0796 0.0100098 58.0496 0.0100098L35.3477 0.0100098C35.3276 0.0100098 35.3176 0.0200195 35.2976 0.0200195C35.2776 0.0200195 35.2275 0.0300293 35.1978 0.0300293L35.0876 0.0600586C35.0559 0.0690918 35.0256 0.0825195 34.9976 0.0998535C34.9858 0.10791 34.9719 0.111572 34.9578 0.109863C34.9463 0.122314 34.9329 0.132568 34.9177 0.139893C34.8894 0.157471 34.8625 0.17749 34.8379 0.199951C34.8086 0.224121 34.7817 0.250732 34.7578 0.280029C34.7378 0.309814 34.7178 0.329834 34.6978 0.359863C34.6855 0.371338 34.6753 0.384766 34.6677 0.399902L23.3218 20.0649C23.3074 20.0933 23.2974 20.1235 23.2917 20.1548C23.2708 20.2031 23.2539 20.2534 23.2417 20.3047C23.2285 20.4043 23.2285 20.5051 23.2417 20.6047C23.2539 20.656 23.2708 20.7063 23.2917 20.7546C23.2974 20.7859 23.3074 20.8164 23.3218 20.8447L34.5378 40.2698L12.1157 40.2698C12.0959 40.2698 12.0857 40.2798 12.0659 40.2798C12.0459 40.2798 11.9958 40.2898 11.9658 40.2898L11.856 40.3196C11.8242 40.3286 11.7939 40.3423 11.7659 40.3596C11.7559 40.3696 11.7358 40.3696 11.7261 40.3796L11.696 40.4097C11.6675 40.4272 11.6409 40.4473 11.616 40.4697C11.5869 40.4937 11.5601 40.5205 11.5359 40.5496C11.5159 40.5796 11.4961 40.5996 11.4761 40.6296C11.4636 40.6409 11.4536 40.6545 11.446 40.6697L0.0900879 60.3345C0.0756836 60.3628 0.0654297 60.3931 0.0600586 60.4246C0.0388184 60.4729 0.0222168 60.5232 0.0100098 60.5745C-0.00341797 60.6741 -0.00341797 60.7749 0.0100098 60.8745C0.0222168 60.9258 0.0388184 60.9761 0.0600586 61.0244C0.0654297 61.0557 0.0756836 61.0859 0.0900879 61.1143L11.446 80.7793L11.4761 80.8093C11.4963 80.8416 11.5195 80.8718 11.5459 80.8992C11.5859 80.9392 11.626 80.9692 11.666 81.0093C11.6958 81.0293 11.7061 81.0593 11.7361 81.0693C11.7478 81.0771 11.7617 81.0808 11.7759 81.0791C11.8845 81.1348 12.0039 81.1655 12.1257 81.1692L34.5479 81.1692L23.3418 100.594C23.3274 100.623 23.3174 100.653 23.3118 100.684C23.2908 100.733 23.2739 100.783 23.2617 100.834C23.2485 100.934 23.2485 101.035 23.2617 101.134C23.2739 101.186 23.2908 101.236 23.3118 101.284C23.3174 101.315 23.3274 101.346 23.3418 101.374L34.6877 121.039L34.7178 121.069C34.738 121.101 34.7615 121.131 34.7878 121.159C34.8276 121.199 34.8677 121.229 34.9077 121.269C34.9377 121.289 34.9478 121.319 34.9778 121.329C34.9895 121.337 35.0037 121.34 35.0176 121.339C35.1262 121.394 35.2456 121.425 35.3674 121.429L58.0696 121.429C58.1914 121.425 58.3108 121.394 58.4194 121.339C58.4495 121.319 58.4695 121.299 58.4993 121.279C58.5801 121.228 58.6487 121.16 58.6995 121.079C58.7095 121.059 58.7292 121.049 58.7493 121.029L69.9653 101.604L81.1814 121.029L81.2114 121.059C81.2317 121.091 81.2551 121.121 81.2812 121.149C81.3213 121.189 81.3613 121.219 81.4014 121.259C81.4314 121.279 81.4412 121.309 81.4712 121.319C81.4829 121.327 81.4971 121.33 81.5112 121.329C81.6199 121.384 81.7393 121.415 81.8611 121.419L104.563 121.419C104.685 121.415 104.804 121.384 104.913 121.329C104.943 121.309 104.963 121.289 104.993 121.269C105.074 121.218 105.142 121.15 105.193 121.069C105.203 121.049 105.223 121.039 105.243 121.019L116.539 101.364ZM104.053 119.849L83.1606 119.849L93.6069 101.754L114.5 101.754L104.053 119.849ZM57.5698 119.849L36.677 119.849L59.0193 81.1592L79.9119 81.1592L57.5698 119.849ZM13.4353 79.5796L23.8816 61.4841L68.5559 61.4841L58.1094 79.5796L13.4353 79.5796ZM12.0759 42.6091L22.522 60.7043L12.0759 78.7998L1.62939 60.7043L12.0759 42.6091ZM24.8713 20.4348L35.3176 2.33936L57.6597 41.0295L47.2134 59.1248L24.8713 20.4348ZM81.8113 2.34937L92.2576 20.4448L69.9253 59.1348L59.479 41.0396L81.8113 2.34937ZM104.053 1.55957L114.5 19.655L93.6069 19.655L83.1606 1.55957L104.053 1.55957ZM127.305 41.8293L137.751 59.9246L93.0771 59.9246L82.6309 41.8293L127.305 41.8293ZM81.2615 42.6091L91.2478 59.9146L71.2649 59.9146L81.2615 42.6091ZM68.5559 59.9146L48.573 59.9146L58.5593 42.6091L68.5559 59.9146ZM69.9153 62.2739L79.9019 79.5796L59.9189 79.5796L69.9153 62.2739ZM71.2749 61.4941L92.1575 61.4941L114.49 100.184L93.5969 100.184L71.2749 61.4941ZM93.9768 61.4941L137.741 61.4941L127.295 79.5896L104.413 79.5896L93.9768 61.4941ZM82.6309 40.2498L93.6169 21.2246L114.51 21.2246L103.523 40.2498L82.6309 40.2498ZM58.5593 39.47L36.677 1.55957L57.5698 1.55957L69.0156 21.3745L58.5593 39.47ZM45.844 59.9146L23.8716 59.9146L13.4253 41.8193L35.3975 41.8193L45.844 59.9146ZM57.2 81.1592L35.3176 119.07L24.8713 100.974L36.3071 81.1592L57.2 81.1592ZM81.2615 81.939L92.2476 100.964L81.8013 119.06L70.8152 100.024L81.2615 81.939Z" fill="#FFFFFF" fill-opacity="1.000000" fill-rule="nonzero"/>
</svg>
