<svg width="139.968750" height="125.875000" viewBox="0 0 139.969 125.875" fill="none" xmlns="http://www.w3.org/2000/svg" xmlns:xlink="http://www.w3.org/1999/xlink">
	<desc>
			Created with Pixso.
	</desc>
	<defs>
		<clipPath id="clip5_96">
			<rect id="svg" width="139.968750" height="125.875000" fill="white" fill-opacity="0"/>
		</clipPath>
	</defs>
	<g clip-path="url(#clip5_96)">
		<path id="Vector" d="M114.515 0.00634766L88.3406 15.0029L88.3904 54.0444L51.9585 14.4932L25.2544 0.0163574L0 14.2932L0 95.4851L25.5244 109.732L51.7185 95.2354L51.7185 88.5767L87.2908 125.868L139.969 95.4551L139.969 14.2932L114.515 0.00634766ZM90.7898 17.8025L115.454 31.9492L115.454 83.418L90.8298 56.6938L90.7898 17.8025ZM2.44946 17.1025L24.8044 30.0098L86.4209 96.2151L86.4409 121.409L24.3845 56.3438L24.3845 106.283L2.44946 94.0554L2.44946 17.1025ZM49.269 86.2273L49.269 93.8057L26.7141 106.283L26.7141 62.4026L49.4089 86.2273L49.269 86.2273ZM137.639 94.0654L88.8704 122.209L88.8503 95.2651L26.3342 28.1001L3.6792 15.0229L25.2944 2.79565L50.4688 16.4426L117.904 89.6365L117.904 30.5396L92.0195 15.7029L114.585 2.78564L137.639 15.7029L137.639 94.0654Z" fill="#FFFFFF" fill-opacity="1.000000" fill-rule="nonzero"/>
	</g>
</svg>
