<svg width="121.218750" height="139.967773" viewBox="0 0 121.219 139.968" fill="none" xmlns="http://www.w3.org/2000/svg" xmlns:xlink="http://www.w3.org/1999/xlink">
	<desc>
			Created with Pixso.
	</desc>
	<defs/>
	<path id="Vector" d="M121.219 34.9944L100.522 23.0464L81.3157 34.1345L81.3157 11.948L60.6094 0L39.9131 11.948L39.9131 34.1245L20.7064 23.0364L0 34.9944L0 58.9006L19.2067 69.989L0 81.0771L0 104.983L20.6964 116.931L39.9031 105.843L39.9031 128.02L60.5994 139.968L81.2957 128.02L81.2957 105.843L100.502 116.931L121.219 104.983L121.219 81.0771L102.012 69.989L121.219 58.9006L121.219 34.9944ZM100.522 24.7661L118.989 35.4243L81.4358 57.1709L81.3157 35.8542L100.522 24.7661ZM79.8259 36.7141L79.946 58.0408L61.3594 68.8091L61.3594 24.3362L79.8259 13.6777L79.8259 36.7141ZM41.4028 13.6777L59.8596 24.3362L59.8596 68.8091L41.4028 58.1208L41.4028 13.6777ZM20.6964 24.7661L39.9031 35.8542L39.9031 57.241L2.23962 35.4243L20.6964 24.7661ZM1.48975 58.0408L1.48975 36.7241L39.1632 58.5408L20.7064 69.1292L1.48975 58.0408ZM1.48975 104.124L1.48975 82.8069L19.9465 93.4651L19.9465 114.782L1.48975 104.124ZM2.23962 81.5071L21.0763 70.6389L40.663 59.4006L59.1196 70.0889L20.7064 92.1653L2.23962 81.5071ZM59.8596 137.818L41.4028 127.16L41.4028 104.983L59.8596 94.325L59.8596 137.818ZM41.4028 103.264L40.283 103.914L21.4463 114.792L21.4463 93.4751L59.8596 71.3987L59.8596 92.6052L41.4028 103.264ZM60.6094 23.0464L42.1526 12.3879L60.6094 1.72974L79.0662 12.3879L60.6094 23.0464ZM79.8159 127.16L61.3594 137.818L61.3594 94.325L79.8159 104.983L79.8159 127.16ZM99.7725 114.782L80.9358 103.904L79.8159 103.254L61.3594 92.5952L61.3594 71.3887L99.7725 93.4651L99.7725 114.782ZM119.729 104.124L101.272 114.782L101.272 93.2852L119.729 82.7969L119.729 104.124ZM118.969 81.5071L100.362 92.0854L62.0991 70.0989L80.6858 59.3306L99.0327 69.989L99.6526 70.3489L100.022 70.5688L100.143 70.6389L118.969 81.5071ZM119.729 58.0408L100.522 69.1292L82.1855 58.4707L119.739 36.7241L119.739 58.0408L119.729 58.0408Z" fill="#FFFFFF" fill-opacity="1.000000" fill-rule="nonzero"/>
</svg>
