<svg width="18.375000" height="18.375000" viewBox="0 0 18.375 18.375" fill="none" xmlns="http://www.w3.org/2000/svg" xmlns:xlink="http://www.w3.org/1999/xlink">
	<desc>
			Created with Pixso.
	</desc>
	<defs/>
	<path id="" d="M16.8369 1.53809C17.9033 2.60449 18.2314 3.91699 18.3135 5.39355C18.3955 6.91113 18.3955 11.4639 18.3135 12.9814C18.2314 14.458 17.9033 15.7295 16.8369 16.8369C15.7705 17.9033 14.458 18.2314 12.9814 18.3135C11.4639 18.3955 6.91113 18.3955 5.39355 18.3135C3.91699 18.2314 2.64551 17.9033 1.53809 16.8369C0.47168 15.7295 0.143555 14.458 0.0615234 12.9814C-0.0205078 11.4639 -0.0205078 6.91113 0.0615234 5.39355C0.143555 3.91699 0.47168 2.60449 1.53809 1.53809C2.64551 0.47168 3.91699 0.143555 5.39355 0.0615234C6.91113 -0.0205078 11.4639 -0.0205078 12.9814 0.0615234C14.458 0.143555 15.7705 0.47168 16.8369 1.53809ZM14.6221 16.3447C15.4014 16.0166 16.0576 15.4014 16.3447 14.5811C16.763 13.5703 16.737 11.3453 16.7197 9.86901C16.7166 9.60798 16.7139 9.37036 16.7139 9.16699C16.7139 8.97109 16.7166 8.74046 16.7196 8.48574C16.7369 7.03396 16.7634 4.79974 16.3447 3.75293C16.0166 2.97363 15.4014 2.31738 14.6221 2.03027C13.5753 1.61155 11.341 1.63811 9.88926 1.65536C9.63454 1.65839 9.40391 1.66113 9.20801 1.66113C9.00464 1.66113 8.76702 1.65835 8.50599 1.6553C7.0297 1.63805 4.80468 1.61204 3.79395 2.03027C2.97363 2.3584 2.3584 2.97363 2.03027 3.75293C1.61155 4.79974 1.63811 7.03396 1.65536 8.48574C1.65839 8.74046 1.66113 8.97109 1.66113 9.16699C1.66113 9.37036 1.65836 9.60798 1.6553 9.86901C1.63805 11.3453 1.61204 13.5703 2.03027 14.5811C2.3584 15.4014 2.97363 16.0166 3.79395 16.3447C4.80468 16.763 7.0297 16.737 8.50599 16.7197C8.76702 16.7166 9.00464 16.7139 9.20801 16.7139C9.40391 16.7139 9.63454 16.7166 9.88926 16.7196C11.341 16.7369 13.5753 16.7634 14.6221 16.3447ZM14.0889 3.17871C14.7041 3.17871 15.1963 3.6709 15.1963 4.28613C15.1963 4.90137 14.7041 5.39355 14.0889 5.39355C13.4736 5.39355 12.9814 4.90137 12.9814 4.28613C12.9814 3.6709 13.4736 3.17871 14.0889 3.17871ZM4.49121 9.16699C4.49121 6.58301 6.58301 4.4502 9.20801 4.4502C11.792 4.4502 13.9248 6.58301 13.9248 9.16699C13.9248 11.792 11.792 13.8838 9.20801 13.8838C6.58301 13.8838 4.49121 11.792 4.49121 9.16699ZM6.13184 9.16699C6.13184 10.8896 7.52637 12.2432 9.20801 12.2432C10.8896 12.2432 12.2432 10.8896 12.2432 9.16699C12.2432 7.48535 10.8896 6.13184 9.20801 6.13184C7.48535 6.13184 6.13184 7.48535 6.13184 9.16699Z" fill="#FFFFFF" fill-opacity="1.000000" fill-rule="evenodd"/>
</svg>
