<svg width="20.958984" height="17.021484" viewBox="0 0 20.959 17.0215" fill="none" xmlns="http://www.w3.org/2000/svg" xmlns:xlink="http://www.w3.org/1999/xlink">
	<desc>
			Created with Pixso.
	</desc>
	<defs/>
	<path id="" d="M20.959 2.00977C20.3848 2.87109 19.6465 3.60938 18.8262 4.22461L18.8262 4.79883C18.8262 10.5 14.5195 17.0215 6.60352 17.0215C4.14258 17.0215 1.88672 16.3242 0 15.0938C0.328125 15.1348 0.65625 15.1758 1.02539 15.1758C3.03516 15.1758 4.88086 14.4785 6.35742 13.3301C4.4707 13.2891 2.87109 12.0586 2.33789 10.3359C2.625 10.377 2.87109 10.418 3.1582 10.418C3.52734 10.418 3.9375 10.3359 4.26562 10.2539C2.29688 9.84375 0.820312 8.12109 0.820312 6.0293L0.820312 5.98828C1.39453 6.31641 2.0918 6.48047 2.78906 6.52148C1.59961 5.74219 0.861328 4.42969 0.861328 2.95312C0.861328 2.13281 1.06641 1.39453 1.43555 0.779297C3.56836 3.36328 6.76758 5.08594 10.3359 5.29102Q10.2129 4.79883 10.2129 4.30664C10.2129 1.92773 12.1406 0 14.5195 0C15.75 0 16.8574 0.492188 17.6777 1.35352C18.6211 1.14844 19.5645 0.779297 20.3848 0.287109C20.0566 1.3125 19.4004 2.13281 18.498 2.66602C19.3594 2.58398 20.2207 2.33789 20.959 2.00977Z" fill="#FFFFFF" fill-opacity="1.000000" fill-rule="evenodd"/>
</svg>
